<svg width="152" height="152" fill="none" xmlns="http://www.w3.org/2000/svg"><path fill="#EEE" d="M0 0h152v152H0z"/><path d="M123.886 87.544l-8.198-33.202C115.117 50.687 111.565 44 102.051 44c-.631 0-1.236.246-1.682.683a2.31 2.31 0 00-.697 1.65c0 .618.25 1.212.697 1.65a2.402 2.402 0 001.682.683c7.691 0 8.832 5.8 8.943 6.438l7.548 30.636h-3.314a18.429 18.429 0 00-2.722-7.527 18.838 18.838 0 00-5.682-5.723 3.952 3.952 0 00-1.763 1.43 3.835 3.835 0 00-.663 2.147c.008.135.008.27 0 .405a14.416 14.416 0 014.614 5.05 14.107 14.107 0 011.729 6.567c-.01.782-.084 1.562-.222 2.332a13.929 13.929 0 01-4.814 8.492 14.437 14.437 0 01-9.291 3.373 14.437 14.437 0 01-9.292-3.373 13.928 13.928 0 01-4.814-8.492c-.138-.77-.212-1.55-.222-2.332a14.3 14.3 0 011.507-6.221 3.197 3.197 0 01-2.1-.984 3.078 3.078 0 01-.85-2.126 1.092 1.092 0 00-.301-.762 18.187 18.187 0 00-2.838 7.775h-2.95c-.506-4.574-2.717-8.803-6.209-11.876a19.243 19.243 0 00-12.709-4.773c-4.691 0-9.217 1.7-12.709 4.773-3.492 3.073-5.703 7.302-6.209 11.876h-3.282L41 55.104c.095-.638 1.284-6.438 8.943-6.438a2.4 2.4 0 001.682-.684 2.31 2.31 0 00.697-1.65 2.31 2.31 0 00-.697-1.649A2.403 2.403 0 0049.943 44c-9.514 0-13.066 6.687-13.637 10.342l-8.214 33.202a2.166 2.166 0 00.39 1.99c.221.276.507.497.834.644a2.29 2.29 0 001.044.197h6.343c.128.962.33 1.913.602 2.846.1-.17.155-.364.159-.56 0-.825.334-1.616.929-2.2a3.203 3.203 0 012.242-.91 3 3 0 01.761.108 13.868 13.868 0 01-.11-1.633c.003-.781.072-1.561.205-2.332a13.927 13.927 0 014.802-8.527 14.438 14.438 0 019.312-3.39c3.417 0 6.721 1.204 9.31 3.39a13.927 13.927 0 014.803 8.527c.132.77.201 1.55.206 2.332a13.955 13.955 0 01-4.208 9.87 14.512 14.512 0 01-10.064 4.127 14.47 14.47 0 01-8.61-2.69 3.206 3.206 0 01-2.062.761 1.202 1.202 0 00-.83.347c-.22.219-.343.513-.343.82a3.054 3.054 0 01-.286 1.259 19.115 19.115 0 0012.068 4.262 19.251 19.251 0 0012.65-4.65c3.494-3.014 5.741-7.18 6.315-11.71h2.886c.522 4.56 2.74 8.77 6.228 11.829A19.245 19.245 0 0096.35 107c4.679 0 9.194-1.691 12.682-4.749 3.489-3.058 5.706-7.27 6.228-11.83h6.343a2.28 2.28 0 001.07-.183 2.22 2.22 0 00.855-.657 2.154 2.154 0 00.358-2.037z" fill="#000"/></svg>